<svg width="375" height="233" viewBox="0 0 375 233" fill="none" xmlns="http://www.w3.org/2000/svg">
<mask id="mask0" mask-type="alpha" maskUnits="userSpaceOnUse" x="-6" y="-34" width="394" height="267">
<path d="M-6 -34H388V233H-6V-34Z" fill="#808080"/>
</mask>
<g mask="url(#mask0)">
<path d="M102 94.5C102 107.479 91.4787 118 78.5 118C65.5213 118 55 107.479 55 94.5C55 81.5213 65.5213 71 78.5 71C91.4787 71 102 81.5213 102 94.5Z" fill="#F44336"/>
<path d="M44 23C44 32.3888 36.3888 40 27 40C17.6112 40 10 32.3888 10 23C10 13.6112 17.6112 6 27 6C36.3888 6 44 13.6112 44 23Z" fill="#E91E63"/>
<path d="M341 187C341 194.732 334.732 201 327 201C319.268 201 313 194.732 313 187C313 179.268 319.268 173 327 173C334.732 173 341 179.268 341 187Z" fill="#F44336"/>
<path d="M307 105.5C307 112.956 300.956 119 293.5 119C286.044 119 280 112.956 280 105.5C280 98.0442 286.044 92 293.5 92C300.956 92 307 98.0442 307 105.5Z" fill="#9C27B0"/>
<path d="M183 182C183 187.523 178.523 192 173 192C167.477 192 163 187.523 163 182C163 176.477 167.477 172 173 172C178.523 172 183 176.477 183 182Z" fill="#F44336"/>
<path d="M267 208.5C267 222.031 256.031 233 242.5 233C228.969 233 218 222.031 218 208.5C218 194.969 228.969 184 242.5 184C256.031 184 267 194.969 267 208.5Z" fill="#E91E63"/>
<path d="M149 98C149 101.866 145.866 105 142 105C138.134 105 135 101.866 135 98C135 94.134 138.134 91 142 91C145.866 91 149 94.134 149 98Z" fill="#9C27B0"/>
<path d="M179 173.5C179 184.27 170.27 193 159.5 193C148.73 193 140 184.27 140 173.5C140 162.73 148.73 154 159.5 154C170.27 154 179 162.73 179 173.5Z" fill="#9C27B0"/>
<path d="M303 91.5C303 103.374 293.374 113 281.5 113C269.626 113 260 103.374 260 91.5C260 79.6259 269.626 70 281.5 70C293.374 70 303 79.6259 303 91.5Z" fill="#E91E63"/>
<path d="M290 89C290 92.866 286.866 96 283 96C279.134 96 276 92.866 276 89C276 85.134 279.134 82 283 82C286.866 82 290 85.134 290 89Z" fill="#F44336"/>
<path d="M13 108.5C13 115.956 6.95584 122 -0.5 122C-7.95584 122 -14 115.956 -14 108.5C-14 101.044 -7.95584 95 -0.5 95C6.95584 95 13 101.044 13 108.5Z" fill="#9C27B0"/>
<path d="M303 185C303 188.866 299.866 192 296 192C292.134 192 289 188.866 289 185C289 181.134 292.134 178 296 178C299.866 178 303 181.134 303 185Z" fill="#9C27B0"/>
<path d="M355 164.5C355 171.956 348.956 178 341.5 178C334.044 178 328 171.956 328 164.5C328 157.044 334.044 151 341.5 151C348.956 151 355 157.044 355 164.5Z" fill="#E91E63"/>
<path d="M56 39C56 45.6274 50.6274 51 44 51C37.3726 51 32 45.6274 32 39C32 32.3726 37.3726 27 44 27C50.6274 27 56 32.3726 56 39Z" fill="#F44336"/>
<path d="M169 36C169 43.1797 163.18 49 156 49C148.82 49 143 43.1797 143 36C143 28.8203 148.82 23 156 23C163.18 23 169 28.8203 169 36Z" fill="#9C27B0"/>
<path d="M376 70.5C376 77.4036 370.404 83 363.5 83C356.596 83 351 77.4036 351 70.5C351 63.5964 356.596 58 363.5 58C370.404 58 376 63.5964 376 70.5Z" fill="#9C27B0"/>
<path d="M350 126.5C350 137.27 341.27 146 330.5 146C319.73 146 311 137.27 311 126.5C311 115.73 319.73 107 330.5 107C341.27 107 350 115.73 350 126.5Z" fill="#E91E63"/>
<path d="M362 65.5C362 75.7173 353.717 84 343.5 84C333.283 84 325 75.7173 325 65.5C325 55.2827 333.283 47 343.5 47C353.717 47 362 55.2827 362 65.5Z" fill="#9C27B0"/>
<path d="M85 153.5C85 157.642 81.6421 161 77.5 161C73.3579 161 70 157.642 70 153.5C70 149.358 73.3579 146 77.5 146C81.6421 146 85 149.358 85 153.5Z" fill="#9C27B0"/>
<path d="M78 16.5C78 19.5376 75.5376 22 72.5 22C69.4624 22 67 19.5376 67 16.5C67 13.4624 69.4624 11 72.5 11C75.5376 11 78 13.4624 78 16.5Z" fill="#9C27B0"/>
<path d="M367 171.5C367 175.642 363.642 179 359.5 179C355.358 179 352 175.642 352 171.5C352 167.358 355.358 164 359.5 164C363.642 164 367 167.358 367 171.5Z" fill="#F44336"/>
<path d="M21 81C21 90.3888 13.3888 98 4 98C-5.38884 98 -13 90.3888 -13 81C-13 71.6112 -5.38884 64 4 64C13.3888 64 21 71.6112 21 81Z" fill="#F44336"/>
<path d="M103 152C103 157.523 98.5228 162 93 162C87.4772 162 83 157.523 83 152C83 146.477 87.4772 142 93 142C98.5228 142 103 146.477 103 152Z" fill="#9C27B0"/>
<path d="M349 201C349 205.971 344.971 210 340 210C335.029 210 331 205.971 331 201C331 196.029 335.029 192 340 192C344.971 192 349 196.029 349 201Z" fill="#E91E63"/>
<path d="M63 87.5C63 92.7467 58.7467 97 53.5 97C48.2533 97 44 92.7467 44 87.5C44 82.2533 48.2533 78 53.5 78C58.7467 78 63 82.2533 63 87.5Z" fill="#F44336"/>
</g>
</svg>
